<svg width="969" height="694" fill="none" xmlns="http://www.w3.org/2000/svg"><path d="M227.702 626.239c-2.05 0-3.531-.313-4.443-.94-.911-.626-1.452-1.424-1.623-2.392a18.205 18.205 0 0 1-.256-3.161v-29.904c0-1.139.085-2.165.256-3.076.228-.968.797-1.737 1.709-2.307.911-.626 2.421-.94 4.528-.94 2.108 0 3.645.428 4.614 1.282.968.797 1.452 2.136 1.452 4.016l-1.11.939c.113-.284.455-.769 1.025-1.452.569-.684 1.31-1.396 2.221-2.136.912-.74 1.965-1.367 3.161-1.88a9.604 9.604 0 0 1 4.016-.854c1.88 0 3.56.285 5.041.854a11.43 11.43 0 0 1 4.101 2.393c1.253 1.025 2.335 2.335 3.247 3.93.797-1.139 1.766-2.25 2.905-3.332 1.139-1.083 2.477-1.994 4.015-2.734 1.595-.741 3.361-1.111 5.298-1.111 3.303 0 6.094.854 8.373 2.563 2.335 1.652 4.101 4.044 5.297 7.177 1.196 3.133 1.794 6.921 1.794 11.363v15.294c0 1.082-.114 2.136-.342 3.161-.17.969-.712 1.766-1.623 2.393-.911.569-2.421.854-4.528.854-2.108 0-3.617-.313-4.529-.94-.854-.626-1.395-1.424-1.623-2.392a19.183 19.183 0 0 1-.256-3.161v-15.294c0-1.766-.2-3.247-.598-4.443-.399-1.196-1.026-2.107-1.88-2.734-.797-.683-1.823-1.025-3.076-1.025-1.31 0-2.421.313-3.332.94-.911.569-1.595 1.481-2.05 2.734-.456 1.196-.684 2.734-.684 4.613v15.294c0 1.139-.142 2.221-.427 3.247-.285.968-.911 1.766-1.88 2.392-.911.57-2.392.826-4.443.769-2.05-.057-3.503-.399-4.357-1.025-.854-.627-1.367-1.424-1.538-2.393a18.656 18.656 0 0 1-.256-3.075v-15.294c0-1.766-.2-3.247-.598-4.443-.399-1.253-.997-2.193-1.795-2.819-.797-.627-1.851-.94-3.161-.94-1.424 0-2.591.37-3.503 1.111-.911.74-1.595 1.737-2.05 2.99-.399 1.196-.598 2.563-.598 4.101v15.379a13.78 13.78 0 0 1-.342 3.161c-.171.969-.712 1.766-1.624 2.393-.911.569-2.42.854-4.528.854ZM299.596 643.498c-2.335-1.026-3.702-2.165-4.101-3.418-.342-1.253-.029-2.933.94-5.041l21.445-47.931c.968-2.222 2.022-3.532 3.161-3.93 1.196-.456 2.962-.228 5.297.683 2.279 1.082 3.589 2.222 3.931 3.418.398 1.196.142 2.791-.769 4.784l-21.531 48.274c-.968 2.221-2.022 3.559-3.161 4.015-1.139.456-2.877.171-5.212-.854Zm7.433-19.908-20.078-30.587c-1.253-1.88-1.766-3.446-1.538-4.699.285-1.253 1.424-2.535 3.418-3.845 2.221-1.367 3.93-1.879 5.126-1.538 1.253.285 2.506 1.396 3.759 3.332l14.781 22.642-5.468 14.695ZM351.054 626.154c-2.563 0-5.041-.542-7.433-1.624-2.336-1.139-4.415-2.705-6.237-4.699a23.707 23.707 0 0 1-4.358-6.835c-1.025-2.62-1.538-5.383-1.538-8.288 0-2.791.513-5.439 1.538-7.946 1.082-2.563 2.535-4.813 4.358-6.749 1.879-1.994 3.987-3.56 6.322-4.699a16.544 16.544 0 0 1 7.348-1.709c2.734 0 5.126.569 7.177 1.709a15.005 15.005 0 0 1 5.297 4.528c1.424 1.936 2.478 4.186 3.161 6.75.741 2.563 1.139 5.24 1.196 8.031.057 2.905-.284 5.639-1.025 8.202-.683 2.563-1.737 4.842-3.161 6.835a16.373 16.373 0 0 1-5.297 4.785c-2.051 1.139-4.5 1.709-7.348 1.709Zm1.709-12.645c1.538 0 2.905-.371 4.101-1.111a8.846 8.846 0 0 0 2.99-3.161c.797-1.31 1.196-2.763 1.196-4.358 0-1.652-.37-3.104-1.111-4.357-.74-1.31-1.737-2.336-2.99-3.076-1.253-.741-2.677-1.111-4.272-1.111a8.53 8.53 0 0 0-4.272 1.111c-1.253.74-2.25 1.766-2.99 3.076-.684 1.253-1.025 2.705-1.025 4.357 0 1.595.37 3.048 1.11 4.358a8.621 8.621 0 0 0 3.076 3.161 8.382 8.382 0 0 0 4.187 1.111Zm14.951 12.73c-1.936 0-3.389-.313-4.357-.94-.968-.626-1.595-1.595-1.88-2.905v-51.776c0-1.082.057-2.107.171-3.076.171-1.025.684-1.851 1.538-2.478.855-.626 2.336-.939 4.443-.939 2.108 0 3.588.313 4.443.939.911.57 1.452 1.339 1.623 2.307.228.969.342 2.022.342 3.162v49.213c0 1.082-.114 2.136-.342 3.161-.171.968-.712 1.766-1.623 2.392-.855.627-2.307.94-4.358.94ZM402.269 627.008c-3.988 0-7.434-.655-10.338-1.965-2.848-1.31-5.184-3.019-7.007-5.126a22.61 22.61 0 0 1-4.101-7.177c-.854-2.621-1.281-5.241-1.281-7.861 0-4.272.968-8.06 2.905-11.363 1.936-3.304 4.613-5.896 8.031-7.775 3.418-1.937 7.348-2.905 11.791-2.905 3.303 0 6.151.541 8.544 1.623 2.449 1.025 4.442 2.392 5.98 4.101 1.595 1.652 2.763 3.446 3.503 5.383.798 1.937 1.197 3.788 1.197 5.554 0 3.132-.769 5.468-2.307 7.006-1.481 1.48-3.389 2.221-5.725 2.221h-20.334c.114 1.481.626 2.734 1.538 3.759.968 1.026 2.164 1.823 3.588 2.393 1.424.569 2.933.854 4.528.854 1.367 0 2.563-.057 3.589-.171 1.025-.171 1.908-.37 2.648-.598.741-.285 1.424-.541 2.051-.769a25.868 25.868 0 0 1 1.623-.683 7.592 7.592 0 0 1 1.453-.342c.854-.057 1.623.199 2.307.769.74.512 1.395 1.31 1.965 2.392.398.627.655 1.225.769 1.794.171.57.256 1.139.256 1.709 0 1.367-.712 2.592-2.136 3.674-1.367 1.082-3.332 1.937-5.895 2.563-2.507.627-5.554.94-9.142.94Zm-9.142-25.29h13.499c.911 0 1.566-.142 1.965-.427.456-.342.684-.969.684-1.88 0-1.025-.314-1.908-.94-2.649-.627-.797-1.481-1.395-2.563-1.794-1.026-.455-2.222-.683-3.589-.683-1.766 0-3.332.341-4.699 1.025-1.367.683-2.449 1.595-3.247 2.734-.74 1.139-1.11 2.364-1.11 3.674ZM448.073 626.581c-2.506 0-5.069-.456-7.689-1.367-2.563-.969-4.956-2.364-7.177-4.187-2.164-1.879-3.902-4.158-5.212-6.835-1.31-2.734-1.965-5.867-1.965-9.398 0-3.532.655-6.636 1.965-9.313 1.31-2.677 3.048-4.927 5.212-6.75 2.164-1.823 4.528-3.19 7.091-4.101 2.621-.968 5.155-1.452 7.605-1.452 2.107 0 3.987.256 5.639.769 1.708.455 3.132 1.025 4.272 1.708 1.196.684 2.05 1.282 2.563 1.795.968.74 1.822 1.481 2.563 2.221.74.74 1.082 1.709 1.025 2.905-.057.626-.256 1.282-.598 1.965a16.389 16.389 0 0 1-1.281 1.965c-1.709 2.392-3.418 3.475-5.127 3.247a8.546 8.546 0 0 1-2.392-.855l-2.051-1.196a8.89 8.89 0 0 0-2.05-1.11c-.741-.285-1.595-.428-2.563-.428-1.652 0-3.133.371-4.443 1.111a8.624 8.624 0 0 0-3.162 3.076c-.74 1.31-1.11 2.819-1.11 4.528 0 1.652.37 3.133 1.11 4.443a9.61 9.61 0 0 0 3.076 3.161c1.31.741 2.763 1.111 4.358 1.111.968 0 1.794-.114 2.477-.342.741-.228 1.367-.484 1.88-.769.513-.341.911-.598 1.196-.769a26.555 26.555 0 0 1 1.965-1.196c.627-.399 1.282-.598 1.965-.598.798 0 1.624.313 2.478.94.855.57 1.794 1.509 2.82 2.819.911 1.197 1.424 2.307 1.538 3.333.171 1.025-.057 1.993-.684 2.905-.626.911-1.595 1.794-2.905 2.648-.455.399-1.281.911-2.478 1.538-1.139.627-2.563 1.196-4.272 1.709-1.651.512-3.531.769-5.639.769ZM476.942 626.239c-2.108 0-3.617-.285-4.528-.854-.855-.627-1.396-1.424-1.624-2.393a19.183 19.183 0 0 1-.256-3.161v-29.818c0-1.139.085-2.193.256-3.162.228-.968.798-1.737 1.709-2.306.911-.627 2.421-.94 4.528-.94 2.051 0 3.503.313 4.358.94.911.626 1.452 1.424 1.623 2.392.228.968.342 2.05.342 3.247v29.733c0 1.082-.114 2.135-.342 3.161-.171.968-.712 1.737-1.623 2.307-.855.569-2.336.854-4.443.854Zm0-48.871c-2.165 0-3.702-.314-4.614-.94-.911-.627-1.481-1.453-1.709-2.478a19.832 19.832 0 0 1-.256-3.247c0-1.196.114-2.278.342-3.246.228-1.026.797-1.823 1.709-2.393.911-.626 2.449-.939 4.613-.939 2.108 0 3.617.313 4.529.939.911.627 1.452 1.453 1.623 2.478.228 1.025.342 2.108.342 3.247 0 1.139-.114 2.221-.342 3.247-.171 1.025-.712 1.851-1.623 2.477-.912.57-2.45.855-4.614.855ZM506.178 626.923c-1.538 0-3.218-.171-5.041-.513a33.712 33.712 0 0 1-5.211-1.453c-1.709-.683-3.133-1.452-4.272-2.306-1.14-.912-1.795-1.937-1.966-3.076a4.746 4.746 0 0 1 0-1.794 7.854 7.854 0 0 1 .855-2.051c.399-.74.883-1.509 1.452-2.307.456-.626.969-1.025 1.538-1.196.57-.171 1.225-.142 1.965.085.912.171 1.823.485 2.734.94.969.399 1.909.855 2.82 1.367.968.456 1.965.883 2.99 1.282a9.923 9.923 0 0 0 3.161.512c1.595 0 2.82-.227 3.674-.683.912-.513 1.367-1.196 1.367-2.051 0-.626-.199-1.139-.598-1.537-.341-.399-.854-.741-1.538-1.026-.626-.341-1.367-.626-2.221-.854a69.442 69.442 0 0 0-2.819-.684c-.969-.284-1.966-.569-2.991-.854a25.27 25.27 0 0 1-4.101-1.538 15.188 15.188 0 0 1-3.588-2.392 11.231 11.231 0 0 1-2.564-3.674c-.626-1.481-.939-3.275-.939-5.383 0-2.791.655-5.126 1.965-7.006s3.218-3.303 5.724-4.272c2.506-1.025 5.554-1.538 9.142-1.538 1.025 0 2.051.057 3.076.171a17.36 17.36 0 0 1 2.99.598c1.026.285 2.022.627 2.991 1.026a22.94 22.94 0 0 1 2.905 1.452c1.708.797 2.591 1.88 2.648 3.247.057 1.367-.427 2.762-1.452 4.186-.627.969-1.282 1.681-1.965 2.136-.684.399-1.396.513-2.136.342-.912-.228-1.908-.598-2.991-1.111a36.518 36.518 0 0 0-3.332-1.452c-1.139-.456-2.278-.684-3.417-.684-.969 0-1.795.143-2.478.427-.684.228-1.196.57-1.538 1.026-.342.398-.513.883-.513 1.452 0 .741.2 1.339.598 1.794.456.399 1.054.741 1.795 1.026.74.284 1.594.541 2.563.769.968.227 2.022.455 3.161.683 1.538.285 3.104.684 4.699 1.196 1.652.456 3.133 1.139 4.443 2.051 1.367.911 2.449 2.136 3.247 3.674.854 1.538 1.281 3.56 1.281 6.066 0 4.5-1.566 7.946-4.699 10.338-3.133 2.392-7.604 3.589-13.414 3.589ZM536.766 626.239c-2.107 0-3.617-.285-4.528-.854-.855-.627-1.396-1.424-1.623-2.393a19.183 19.183 0 0 1-.257-3.161v-29.818c0-1.139.086-2.193.257-3.162.227-.968.797-1.737 1.708-2.306.912-.627 2.421-.94 4.529-.94 2.05 0 3.503.313 4.357.94.911.626 1.452 1.424 1.623 2.392.228.968.342 2.05.342 3.247v29.733c0 1.082-.114 2.135-.342 3.161-.171.968-.712 1.737-1.623 2.307-.854.569-2.335.854-4.443.854Zm0-48.871c-2.164 0-3.702-.314-4.614-.94-.911-.627-1.481-1.453-1.708-2.478a19.72 19.72 0 0 1-.257-3.247c0-1.196.114-2.278.342-3.246.228-1.026.798-1.823 1.709-2.393.911-.626 2.449-.939 4.614-.939 2.107 0 3.617.313 4.528.939.911.627 1.452 1.453 1.623 2.478.228 1.025.342 2.108.342 3.247 0 1.139-.114 2.221-.342 3.247-.171 1.025-.712 1.851-1.623 2.477-.911.57-2.449.855-4.614.855ZM571.129 626.581c-1.367 0-2.535-.257-3.503-.769-.969-.513-1.738-1.31-2.307-2.392l-15.379-30.673c-1.025-2.051-1.339-3.731-.94-5.041.456-1.367 1.766-2.592 3.93-3.674 2.165-1.025 3.873-1.367 5.127-1.025 1.31.285 2.477 1.595 3.503 3.93l9.569 22.3 9.569-21.958c1.082-2.45 2.25-3.874 3.503-4.272 1.253-.399 3.019-.029 5.297 1.11 2.336 1.083 3.617 2.364 3.845 3.845.285 1.424-.057 3.076-1.025 4.956l-15.294 30.502c-.513 1.082-1.253 1.879-2.221 2.392-.969.512-2.193.769-3.674.769ZM617.452 627.008c-3.987 0-7.433-.655-10.338-1.965-2.848-1.31-5.183-3.019-7.006-5.126a22.573 22.573 0 0 1-4.101-7.177c-.854-2.621-1.282-5.241-1.282-7.861 0-4.272.969-8.06 2.905-11.363 1.937-3.304 4.614-5.896 8.032-7.775 3.417-1.937 7.347-2.905 11.79-2.905 3.304 0 6.152.541 8.544 1.623 2.449 1.025 4.443 2.392 5.981 4.101 1.595 1.652 2.762 3.446 3.503 5.383.797 1.937 1.196 3.788 1.196 5.554 0 3.132-.769 5.468-2.307 7.006-1.481 1.48-3.389 2.221-5.724 2.221H608.31c.114 1.481.627 2.734 1.538 3.759.968 1.026 2.165 1.823 3.589 2.393 1.424.569 2.933.854 4.528.854 1.367 0 2.563-.057 3.588-.171 1.026-.171 1.908-.37 2.649-.598.74-.285 1.424-.541 2.05-.769a25.866 25.866 0 0 1 1.624-.683 7.583 7.583 0 0 1 1.452-.342c.855-.057 1.624.199 2.307.769.741.512 1.396 1.31 1.965 2.392.399.627.655 1.225.769 1.794.171.57.257 1.139.257 1.709 0 1.367-.712 2.592-2.136 3.674-1.368 1.082-3.333 1.937-5.896 2.563-2.506.627-5.553.94-9.142.94Zm-9.142-25.29h13.5c.911 0 1.566-.142 1.965-.427.455-.342.683-.969.683-1.88 0-1.025-.313-1.908-.94-2.649-.626-.797-1.481-1.395-2.563-1.794-1.025-.455-2.221-.683-3.588-.683-1.766 0-3.332.341-4.699 1.025-1.367.683-2.45 1.595-3.247 2.734-.741 1.139-1.111 2.364-1.111 3.674ZM647.707 626.41c-1.709 0-2.905-.342-3.588-1.025-.684-.684-1.026-1.823-1.026-3.418 0-1.196.143-2.107.428-2.734a2.59 2.59 0 0 1 1.452-1.452c.684-.342 1.595-.513 2.734-.513 1.709 0 2.877.342 3.503 1.025.684.684 1.025 1.88 1.025 3.589 0 1.139-.142 2.05-.427 2.734-.285.626-.769 1.082-1.452 1.367-.627.284-1.51.427-2.649.427ZM696.005 626.239c-1.253 0-2.164-.256-2.734-.769-.513-.513-.826-1.31-.94-2.392l.342-4.272c-.57.911-1.453 1.965-2.649 3.161-1.196 1.139-2.762 2.165-4.699 3.076-1.937.854-4.3 1.281-7.091 1.281-2.734 0-5.298-.541-7.69-1.623-2.335-1.082-4.414-2.592-6.237-4.528-1.766-1.937-3.161-4.158-4.187-6.664-.968-2.507-1.452-5.184-1.452-8.032 0-2.791.484-5.411 1.452-7.86 1.026-2.506 2.45-4.699 4.272-6.579a20.81 20.81 0 0 1 6.238-4.443c2.392-1.082 4.926-1.623 7.604-1.623 2.506 0 4.642.342 6.408 1.025 1.765.627 3.275 1.481 4.528 2.563a18.096 18.096 0 0 1 3.417 3.503l-.17-3.588c-.057-1.253.199-2.136.769-2.649.626-.569 1.594-.854 2.904-.854 1.083 0 1.852.171 2.307.512.513.342.855.826 1.026 1.453.17.626.256 1.395.256 2.307v32.979c0 .798-.086 1.51-.256 2.136-.171.627-.513 1.083-1.026 1.367-.512.342-1.31.513-2.392.513Zm-16.49-7.091c2.279 0 4.358-.599 6.237-1.795a12.603 12.603 0 0 0 4.529-4.784c1.139-2.051 1.708-4.386 1.708-7.006 0-2.677-.598-5.013-1.794-7.006-1.139-2.051-2.677-3.646-4.614-4.785-1.879-1.196-3.958-1.794-6.237-1.794-2.677 0-5.012.626-7.006 1.88-1.936 1.196-3.474 2.819-4.613 4.87-1.14 2.05-1.709 4.385-1.709 7.006 0 2.563.569 4.87 1.709 6.92a13.042 13.042 0 0 0 4.699 4.785c2.05 1.139 4.414 1.709 7.091 1.709ZM714.051 626.324c-1.082 0-1.908-.17-2.477-.512a2.103 2.103 0 0 1-1.026-1.282c-.17-.569-.256-1.253-.256-2.05v-33.749c0-.797.086-1.481.256-2.05.171-.57.513-.997 1.026-1.282.569-.285 1.424-.427 2.563-.427 1.082 0 1.879.171 2.392.512.513.285.855.712 1.025 1.282.171.57.257 1.282.257 2.136v33.663c0 .798-.086 1.481-.257 2.051-.17.569-.541.996-1.11 1.281-.513.285-1.31.427-2.393.427Zm0-51.605c-1.253 0-2.193-.171-2.819-.513a3 3 0 0 1-1.282-1.623c-.171-.683-.256-1.481-.256-2.392 0-.912.114-1.68.342-2.307.228-.684.655-1.168 1.281-1.453.627-.341 1.567-.512 2.82-.512 1.196 0 2.107.171 2.734.512a2.332 2.332 0 0 1 1.196 1.538c.228.684.342 1.481.342 2.393 0 .911-.114 1.708-.342 2.392-.171.627-.57 1.111-1.196 1.452-.627.342-1.566.513-2.82.513Z" fill="#F5F5F5"/><path fill-rule="evenodd" clip-rule="evenodd" d="M499.924 248.813c10.861 0 19.666 8.805 19.666 19.666v125.737l-.01.258-.001.172a34.2 34.2 0 0 0 .026 1.331c.047 1.27.173 3.214.497 5.6.662 4.87 2.074 11.028 4.916 16.931 2.791 5.797 6.804 11.049 12.686 14.923 5.803 3.821 14.673 7.129 28.594 7.129 10.861 0 19.666 8.805 19.666 19.666 0 10.862-8.805 19.667-19.666 19.667-20.496 0-37.131-4.989-50.226-13.613-13.016-8.571-21.295-19.912-26.493-30.709-5.148-10.691-7.423-21.126-8.452-28.701a97.634 97.634 0 0 1-.828-9.438 76.735 76.735 0 0 1-.053-2.883c.001-.364.005-.667.01-.906l.001-.036V268.479c0-10.861 8.805-19.666 19.667-19.666Z" fill="url(#a)"/><path fill-rule="evenodd" clip-rule="evenodd" d="M438.455 207.021c-10.862 0-19.667 8.805-19.667 19.667v199.486l.01.258.001.172c.001.245-.003.699-.026 1.33a58.08 58.08 0 0 1-.497 5.6c-.661 4.87-2.074 11.029-4.916 16.931-2.791 5.797-6.804 11.049-12.686 14.923-5.802 3.821-14.673 7.13-28.593 7.13-10.862 0-19.667 8.804-19.667 19.666 0 10.861 8.805 19.666 19.667 19.666 20.496 0 37.13-4.988 50.226-13.612 13.015-8.572 21.294-19.913 26.492-30.709 5.148-10.692 7.423-21.127 8.452-28.702.521-3.837.74-7.077.828-9.437.044-1.184.055-2.156.053-2.883a50.326 50.326 0 0 0-.01-.906l-.001-.037V226.688c0-10.862-8.805-19.667-19.666-19.667Z" fill="url(#b)"/><path fill-rule="evenodd" clip-rule="evenodd" d="M539.244 189.813h-.156c-.828 13.017-4.921 25.112-11.44 35.416h.456c-.208.049-.434.165-.674.343a74.228 74.228 0 0 1-3.524 5.031c-2.049 3.996-4.191 9.808-5.544 16.043a59.46 59.46 0 0 1 1.215 12c0 26.196-16.932 48.042-39.414 53.019.054-.488.082-.984.082-1.488 0-6.737-4.953-12.198-11.062-12.198-6.11 0-11.063 5.461-11.063 12.198 0 .288.009.573.027.856-21.22-5.994-36.902-27.176-36.902-52.387h-2.305c0-10.146-3.595-21.519-6.941-28.046a74.014 74.014 0 0 1-3.522-5.027c-.241-.179-.467-.295-.676-.344h.457c-6.519-10.304-10.611-22.399-11.44-35.416h-.155V145.564h.001c0-40.73 31.918-73.749 71.29-73.749 39.373 0 71.291 33.019 71.291 73.749l-.001.397V189.813Z" fill="#6D3B78"/><path fill-rule="evenodd" clip-rule="evenodd" d="M565.911 268.48c10.862 0 19.667 8.805 19.667 19.666v61.458c0 10.861-8.805 19.666-19.667 19.666-10.861 0-19.666-8.805-19.666-19.666v-61.458c0-10.861 8.805-19.666 19.666-19.666Z" fill="url(#c)"/><path fill-rule="evenodd" clip-rule="evenodd" d="M631.827 194.73c10.862 0 19.667 8.805 19.667 19.666v145.04c0 10.861-8.805 19.666-19.667 19.666-10.861 0-19.666-8.805-19.666-19.666v-145.04c0-10.861 8.805-19.666 19.666-19.666Z" fill="url(#d)"/><path fill-rule="evenodd" clip-rule="evenodd" d="M698.742 229.146c10.862 0 19.667 8.805 19.667 19.666v44.25c0 10.861-8.805 19.666-19.667 19.666-10.861 0-19.666-8.805-19.666-19.666v-44.25c0-10.861 8.805-19.666 19.666-19.666Z" fill="url(#e)"/><path fill-rule="evenodd" clip-rule="evenodd" d="M240.166 303.996c10.862 0 19.667 8.805 19.667 19.667v44.249c0 10.862-8.805 19.667-19.667 19.667-10.861 0-19.666-8.805-19.666-19.667v-44.249c0-10.862 8.805-19.667 19.666-19.667Z" fill="url(#f)"/><path fill-rule="evenodd" clip-rule="evenodd" d="M306.082 220.415c10.862 0 19.667 8.804 19.667 19.666v142.581c0 10.862-8.805 19.667-19.667 19.667-10.861 0-19.666-8.805-19.666-19.667V240.081c0-10.862 8.805-19.666 19.666-19.666Z" fill="url(#g)"/><path fill-rule="evenodd" clip-rule="evenodd" d="M371.998 264.663c10.861 0 19.666 8.805 19.666 19.667v76.207c0 10.861-8.805 19.666-19.666 19.666s-19.666-8.805-19.666-19.666V284.33c0-10.862 8.805-19.667 19.666-19.667Z" fill="url(#h)"/><ellipse cx="511.38" cy="236.816" rx="26.218" ry="27.336" fill="#6D3B78"/><ellipse cx="511.38" cy="236.816" rx="15.731" ry="16.402" fill="#fff"/><ellipse cx="427.798" cy="236.816" rx="26.218" ry="27.336" fill="#6D3B78"/><ellipse cx="427.798" cy="236.816" rx="15.731" ry="16.402" fill="#fff"/><circle cx="428.622" cy="246.354" r="7.375" fill="#393939"/><circle cx="512.204" cy="246.354" r="7.375" fill="#393939"/><defs><linearGradient id="a" x1="533.105" y1="248.813" x2="533.105" y2="479.893" gradientUnits="userSpaceOnUse"><stop offset=".297" stop-color="#6D3B78"/><stop offset="1" stop-color="#B062C2"/></linearGradient><linearGradient id="b" x1="405.273" y1="207.021" x2="405.273" y2="511.85" gradientUnits="userSpaceOnUse"><stop offset=".297" stop-color="#6D3B78"/><stop offset="1" stop-color="#B062C2"/></linearGradient><linearGradient id="c" x1="565.911" y1="268.48" x2="565.911" y2="369.27" gradientUnits="userSpaceOnUse"><stop offset=".297" stop-color="#6D3B78"/><stop offset="1" stop-color="#B062C2"/></linearGradient><linearGradient id="d" x1="631.827" y1="194.73" x2="631.827" y2="379.102" gradientUnits="userSpaceOnUse"><stop offset=".297" stop-color="#6D3B78"/><stop offset="1" stop-color="#B062C2"/></linearGradient><linearGradient id="e" x1="698.742" y1="229.146" x2="698.742" y2="312.728" gradientUnits="userSpaceOnUse"><stop offset=".297" stop-color="#6D3B78"/><stop offset="1" stop-color="#B062C2"/></linearGradient><linearGradient id="f" x1="240.166" y1="303.996" x2="240.166" y2="387.579" gradientUnits="userSpaceOnUse"><stop offset=".297" stop-color="#6D3B78"/><stop offset="1" stop-color="#B062C2"/></linearGradient><linearGradient id="g" x1="306.082" y1="220.415" x2="306.082" y2="402.329" gradientUnits="userSpaceOnUse"><stop offset=".297" stop-color="#6D3B78"/><stop offset="1" stop-color="#B062C2"/></linearGradient><linearGradient id="h" x1="371.998" y1="264.663" x2="371.998" y2="380.203" gradientUnits="userSpaceOnUse"><stop offset=".297" stop-color="#6D3B78"/><stop offset="1" stop-color="#B062C2"/></linearGradient></defs></svg>