<svg width="59" height="57" viewBox="0 0 59 57" fill="none" xmlns="http://www.w3.org/2000/svg">
<g clip-path="url(#clip0_1226_30651)">
<path fill-rule="evenodd" clip-rule="evenodd" d="M28.0673 0.129599C24.4946 0.779204 21.7108 3.65556 20.8678 7.56833C20.7424 8.15054 20.7248 8.70391 20.7248 12.0798C20.7248 15.5303 20.7404 15.9985 20.8751 16.6131C21.0585 17.45 21.3661 18.388 21.6279 18.9094L21.8235 19.2988L21.6186 19.8121C21.0373 21.2682 21.2937 22.7915 22.2994 23.8571C22.5251 24.0963 22.8733 24.3785 23.0732 24.4843L23.4366 24.6766L23.414 35.4912L23.3913 46.3058L23.1748 47.0935C22.7248 48.7301 21.8649 49.9228 20.7178 50.5014C19.9563 50.8857 19.3007 51.0465 18.172 51.1261C17.6572 51.1624 17.0877 51.2366 16.9066 51.2909C16.3385 51.4615 15.8264 51.9188 15.5121 52.5362C15.2622 53.0271 15.2305 53.1601 15.2321 53.7077C15.235 54.7146 15.7313 55.5564 16.5843 56.0012C17.5308 56.4947 20.3943 56.1706 22.278 55.3567C25.2453 54.0747 27.1983 51.4789 28.0514 47.6829C28.2322 46.879 28.2339 46.8093 28.2784 38.529C28.3114 32.4018 28.3482 30.1421 28.4174 30.0231C28.5374 29.8164 28.9181 29.4621 29.1465 29.3445C29.3737 29.2275 29.9404 29.2275 30.1676 29.3445C30.3959 29.4621 30.7767 29.8164 30.8967 30.0231C30.9651 30.1409 31.0033 31.9771 31.0365 36.7468L31.0823 43.3085L31.2976 44.2897C31.9037 47.0521 33.0959 49.1224 34.9279 50.5941C35.7266 51.2358 37.2256 52.0047 38.2445 52.2954C39.9303 52.7766 41.9543 52.8798 42.6794 52.5218C43.187 52.2712 43.6226 51.8206 43.8725 51.2878C44.1788 50.6345 44.1741 49.7277 43.8609 49.0875C43.7375 48.8353 43.4874 48.4941 43.3053 48.3291C42.7733 47.8474 42.3818 47.7172 41.2278 47.638C40.0237 47.5553 39.4467 47.4191 38.65 47.0293C37.4503 46.4423 36.5794 45.2349 36.1122 43.511L35.9256 42.8224L35.9004 33.7792L35.8754 24.7359L36.331 24.4782C37.2267 23.9716 37.8453 23.0898 38.0652 22.006C38.2364 21.1629 38.0142 20.0087 37.5484 19.3217C37.352 19.0322 37.3493 19.0107 37.4716 18.7301C37.7365 18.1225 38.0686 16.9938 38.1901 16.2882C38.2955 15.6757 38.3115 14.9267 38.2872 11.7316L38.2582 7.90792L38.0319 7.06535C37.6133 5.50692 37.0585 4.40318 36.0836 3.18952C34.1735 0.811526 30.9931 -0.402462 28.0673 0.129599ZM47.911 16.0152C47.3974 16.1736 46.7091 16.8139 46.461 17.364L46.2685 17.7909V27.7954V37.7999L46.4486 38.1912C46.8793 39.1264 47.5512 39.6174 48.4928 39.6849C49.4875 39.7563 50.3478 39.2726 50.8192 38.3769L51.0377 37.9619V27.7954V17.6289L50.7978 17.1948C50.2154 16.141 49.0487 15.6643 47.911 16.0152ZM9.73138 19.1551C8.92466 19.4227 8.3648 19.9476 8.0839 20.7L7.91011 21.1656L7.93153 30.9409L7.95303 40.7162L8.17775 41.1748C9.13305 43.1242 11.8333 42.9968 12.5914 40.9665L12.7652 40.5008L12.7438 30.6851L12.7223 20.8692L12.5394 20.5013C12.0166 19.4496 10.7191 18.8275 9.73138 19.1551ZM25.0804 19.2968C25.5097 19.4163 26.1381 20.0226 26.3188 20.492C26.5479 21.0869 26.5088 21.8246 26.22 22.3565C26.0058 22.7508 25.5159 23.259 25.3498 23.259C25.313 23.259 25.3394 23.178 25.4086 23.0789C25.4778 22.9799 25.5345 22.7393 25.5345 22.5442C25.5345 22.249 25.4885 22.1436 25.2596 21.9142C24.9511 21.605 24.5685 21.5487 24.172 21.7542C23.7127 21.9922 23.6064 22.7442 23.9707 23.178L24.1853 23.4336L23.8697 23.3017C23.1195 22.9881 22.6253 22.1981 22.627 21.3148C22.6287 20.4203 23.0292 19.7652 23.7965 19.4016C24.2389 19.192 24.5985 19.1627 25.0804 19.2968ZM35.425 19.2961C35.7678 19.3916 36.3942 19.9243 36.5746 20.2737C36.7944 20.6997 36.8708 21.2761 36.7711 21.7572C36.6607 22.2896 36.2656 22.9104 35.9028 23.1208L35.6414 23.2723L35.7608 23.0428C35.9733 22.6346 35.9175 22.2259 35.6064 21.9142C35.2979 21.605 34.9153 21.5487 34.5188 21.7542C34.0631 21.9905 33.9531 22.7442 34.3122 23.1717C34.5565 23.4626 34.5279 23.4762 34.1156 23.2654C33.4182 22.9089 33.0374 22.2976 32.9859 21.4523C32.9286 20.5064 33.3418 19.7729 34.1428 19.399C34.5861 19.1921 34.947 19.1632 35.425 19.2961ZM55.7488 20.4955C55.1729 20.7275 54.7721 21.0901 54.4662 21.6553L54.1902 22.1654L54.1666 25.5556C54.1399 29.3966 54.1525 29.502 54.7232 30.2256C55.3487 31.0186 56.4325 31.3211 57.4287 30.981C57.9814 30.7922 58.5983 30.1612 58.8257 29.5518C58.9936 29.1024 58.9999 28.9657 58.9999 25.7819C58.9999 22.0626 58.9848 21.9418 58.4371 21.2473C57.8224 20.468 56.6386 20.1369 55.7488 20.4955ZM17.5079 24.9107C16.7686 25.1852 16.2682 25.6809 15.9901 26.4144C15.842 26.805 15.8344 27.0903 15.8344 32.2487C15.8344 37.5036 15.8395 37.686 15.9987 38.1126C16.3575 39.0735 17.1388 39.6385 18.1786 39.6889C18.7376 39.7159 18.8255 39.6971 19.3077 39.4464C19.6699 39.2582 19.9218 39.0539 20.1271 38.7817C20.6987 38.0238 20.6844 38.1911 20.6844 32.2509C20.6844 26.3108 20.6987 26.478 20.1272 25.7202C19.5631 24.9723 18.3511 24.5977 17.5079 24.9107ZM39.9794 25.5632C39.3105 25.8022 38.8273 26.2774 38.4919 27.0258C38.3577 27.3252 38.3467 27.6972 38.3467 31.9268V36.5038L38.557 36.9531C38.955 37.8035 39.4708 38.2149 40.3835 38.4102C41.1781 38.5802 42.2205 38.1465 42.7055 37.4441C43.2086 36.7152 43.1968 36.8481 43.1968 31.9673C43.1968 27.791 43.1871 27.484 43.0424 27.0672C42.8373 26.4764 42.1479 25.7735 41.5859 25.582C41.1101 25.4198 40.4036 25.4115 39.9794 25.5632ZM1.64796 30.001C1.23837 30.1473 0.734854 30.5371 0.484914 30.901C0.00314228 31.6028 -0.0184404 31.8093 0.00766902 35.463L0.0312726 38.772L0.242493 39.2176C0.495585 39.7515 0.931604 40.2017 1.43779 40.4516C1.73033 40.5961 1.94753 40.6352 2.4563 40.6352C3.02214 40.6352 3.15713 40.6052 3.53617 40.3948C4.07816 40.0939 4.46794 39.6433 4.68183 39.0706C4.84067 38.6451 4.84641 38.487 4.82394 35.1352L4.80049 31.6433L4.582 31.2283C4.30991 30.7113 3.73647 30.1968 3.24573 30.0292C2.8241 29.8853 2.01228 29.8709 1.64796 30.001Z" fill="#D865F2"/>
</g>
</svg>
