<svg xmlns="http://www.w3.org/2000/svg" width="64" height="64"><path d="M13.613 1.491c-1.882.192-3.987.78-5.491 1.534-1.523.764-2.634 1.585-3.816 2.821-1.039 1.087-1.745 2.106-2.464 3.556-.844 1.7-1.307 3.153-1.644 5.161-.132.791-.145 2.026-.169 17.053L.003 47.817l.185.38c.102.209.352.548.556.754 1.193 1.206 3.269.832 4.034-.727l.225-.46.019-15.93c.013-11.146.045-16.125.109-16.579.428-3.076 2.015-5.779 4.251-7.237 1.165-.76 2.323-1.201 3.866-1.473.807-.143 1.597-.15 14.985-.15 13.489 0 14.164.006 14.823.151 1.913.42 3.59 1.338 4.793 2.626 1.129 1.207 1.849 2.685 2.291 4.705l.177.808.045 14.589.045 14.589.227.463c.869 1.77 3.583 1.787 4.482.028l.245-.48V29.726c0-15.182.006-14.937-.418-16.992-1.132-5.483-4.767-9.428-9.961-10.811-1.914-.51-.689-.473-16.343-.491-8.227-.009-14.605.016-15.026.059zM30.751 9.21c-2.048.259-3.814 1.141-5.327 2.66-1.152 1.158-1.823 2.244-2.339 3.79-.37 1.108-.416 1.755-.416 5.859v3.751l.245.825c.135.453.388 1.156.562 1.56l.317.735-.196.443c-.454 1.029-.436 2.11.052 3.103.271.552.891 1.22 1.422 1.531l.334.196.053 7.254c.057 7.971-.008 11.44-.231 12.17-.249.814-.771 1.716-1.295 2.236-1.079 1.069-2.955 1.69-5.121 1.695-3.083.007-4.722-1.492-5.187-4.743-.101-.707-.132-2.695-.178-11.582-.054-10.356-.061-10.739-.212-11.037-.205-.405-.707-.9-1.141-1.125-.255-.132-.536-.19-1.054-.216-.616-.032-.755-.012-1.094.152-.5.243-1.049.793-1.273 1.278l-.176.382v10.647c0 8.276.024 10.837.106 11.501.656 5.272 3.103 8.343 7.505 9.418l.869.212.031.326.03.325.014-.347c.014-.337.02-.345.237-.286.123.034 1.01.06 1.97.059 1.56-.002 1.864-.025 2.849-.22 2.567-.506 4.185-1.277 5.665-2.696 1.468-1.408 2.32-3.224 2.617-5.579.062-.498.116-3.124.152-7.511.038-4.599.084-6.811.144-6.949.223-.508.896-.859 1.479-.772.286.043.447.133.707.393.297.298.344.396.392.826.031.268.086 3.285.124 6.705l.067 6.218.287 1.097c1.071 4.105 3.56 6.68 7.44 7.698.656.172 1.023.21 2.33.246 1.087.029 1.64.012 1.845-.056.43-.141 1.07-.757 1.32-1.269.197-.402.214-.51.183-1.159-.029-.609-.071-.782-.28-1.158-.455-.815-1.153-1.14-2.788-1.3-1.792-.176-2.713-.536-3.664-1.434-.484-.457-.639-.673-.97-1.36-.786-1.63-.73-.794-.73-11.023v-8.976l.379-.201c1.077-.572 1.811-1.68 1.877-2.835.047-.808-.071-1.367-.441-2.096l-.295-.58.249-.598c.6-1.446.741-2.611.743-6.166.001-2.806-.097-4.233-.358-5.193a9.785 9.785 0 0 0-2.386-4.144c-.745-.758-1.423-1.248-2.416-1.745-1.017-.51-1.783-.751-2.858-.9-.998-.139-1.309-.144-2.17-.035zm-3.296 19.248c1.345.686 1.567 2.462.438 3.503-.397.366-.48.376-.353.041.166-.434.105-.773-.192-1.07-.318-.318-.719-.37-1.106-.141-.428.253-.551.957-.237 1.357.193.245.102.272-.274.083-.877-.442-1.318-1.559-1.016-2.57.115-.383.732-1.098 1.079-1.249.385-.168 1.291-.143 1.661.046zm10.904.076c.4.253.73.636.884 1.024.16.404.121 1.342-.07 1.718-.161.314-.754.924-.9.924-.039 0-.021-.145.04-.323.167-.486-.003-.898-.466-1.127-.393-.194-.655-.145-1.01.19-.224.212-.279.324-.278.578 0 .174.072.435.161.58.271.445-.229.259-.746-.278-.845-.877-.834-2.193.026-3.009.394-.374.76-.506 1.416-.509.495-.003.623.028.943.232zm22.346 1.015c-.688.225-1.307.837-1.594 1.575-.12.308-.135.834-.136 4.633-.001 7.104-.226 9.176-1.216 11.194-.463.943-.869 1.444-1.522 1.878-.978.649-2.141.926-3.891.926-2.005 0-3.148-.361-4.129-1.303-.589-.567-.935-1.162-1.177-2.03-.158-.567-.168-.781-.148-3.128.012-1.386.01-3.526-.006-4.755l-.028-2.235-.215-.406c-.264-.496-.764-1.012-1.166-1.202-1.12-.531-2.48-.171-3.174.839-.282.411-.317.523-.395 1.26-.135 1.291-.038 9.074.125 9.967.497 2.726 1.902 4.931 4.026 6.317 1.758 1.147 3.696 1.659 6.257 1.655 2.217-.003 3.896-.343 5.482-1.109 3.319-1.603 5.209-4.696 5.842-9.563.231-1.769.3-3.884.275-8.327-.025-4.299-.029-4.397-.201-4.769-.252-.546-.772-1.074-1.268-1.288-.519-.223-1.279-.28-1.741-.129zm-41.788 2.842c-.775.217-1.404.818-1.6 1.532-.072.261-.09 2.584-.072 9.208.022 8.294.032 8.876.167 9.122.449.823 1.165 1.268 2.049 1.274.939.006 1.711-.481 2.102-1.326.172-.373.172-.374.172-9.232 0-7.118-.021-8.919-.107-9.161-.147-.418-.753-1.068-1.182-1.27-.473-.222-1.059-.279-1.529-.147z" fill="#FFF"/><path d="M13.613 1.491c-1.882.192-3.987.78-5.491 1.534-1.523.764-2.634 1.585-3.816 2.821-1.039 1.087-1.745 2.106-2.464 3.556-.844 1.7-1.307 3.153-1.644 5.161-.132.791-.145 2.026-.169 17.053L.003 47.817l.185.38c.102.209.352.548.556.754 1.193 1.206 3.269.832 4.034-.727l.225-.46.019-15.93c.013-11.146.045-16.125.109-16.579.428-3.076 2.015-5.779 4.251-7.237 1.165-.76 2.323-1.201 3.866-1.473.807-.143 1.597-.15 14.985-.15 13.489 0 14.164.006 14.823.151 1.913.42 3.59 1.338 4.793 2.626 1.129 1.207 1.849 2.685 2.291 4.705l.177.808.045 14.589.045 14.589.227.463c.869 1.77 3.583 1.787 4.482.028l.245-.48V29.726c0-15.182.006-14.937-.418-16.992-1.132-5.483-4.767-9.428-9.961-10.811-1.914-.51-.689-.473-16.343-.491-8.227-.009-14.605.016-15.026.059zM30.751 9.21c-2.048.259-3.814 1.141-5.327 2.66-1.152 1.158-1.823 2.244-2.339 3.79-.37 1.108-.416 1.755-.416 5.859v3.751l.245.825c.135.453.388 1.156.562 1.56l.317.735-.196.443c-.454 1.029-.436 2.11.052 3.103.271.552.891 1.22 1.422 1.531l.334.196.053 7.254c.057 7.971-.008 11.44-.231 12.17-.249.814-.771 1.716-1.295 2.236-1.079 1.069-2.955 1.69-5.121 1.695-3.083.007-4.722-1.492-5.187-4.743-.101-.707-.132-2.695-.178-11.582-.054-10.356-.061-10.739-.212-11.037-.205-.405-.707-.9-1.141-1.125-.255-.132-.536-.19-1.054-.216-.616-.032-.755-.012-1.094.152-.5.243-1.049.793-1.273 1.278l-.176.382v10.647c0 8.276.024 10.837.106 11.501.656 5.272 3.103 8.343 7.505 9.418l.869.212.031.326.03.325.014-.347c.014-.337.02-.345.237-.286.123.034 1.01.06 1.97.059 1.56-.002 1.864-.025 2.849-.22 2.567-.506 4.185-1.277 5.665-2.696 1.468-1.408 2.32-3.224 2.617-5.579.062-.498.116-3.124.152-7.511.038-4.599.084-6.811.144-6.949.223-.508.896-.859 1.479-.772.286.043.447.133.707.393.297.298.344.396.392.826.031.268.086 3.285.124 6.705l.067 6.218.287 1.097c1.071 4.105 3.56 6.68 7.44 7.698.656.172 1.023.21 2.33.246 1.087.029 1.64.012 1.845-.056.43-.141 1.07-.757 1.32-1.269.197-.402.214-.51.183-1.159-.029-.609-.071-.782-.28-1.158-.455-.815-1.153-1.14-2.788-1.3-1.792-.176-2.713-.536-3.664-1.434-.484-.457-.639-.673-.97-1.36-.786-1.63-.73-.794-.73-11.023v-8.976l.379-.201c1.077-.572 1.811-1.68 1.877-2.835.047-.808-.071-1.367-.441-2.096l-.295-.58.249-.598c.6-1.446.741-2.611.743-6.166.001-2.806-.097-4.233-.358-5.193a9.785 9.785 0 0 0-2.386-4.144c-.745-.758-1.423-1.248-2.416-1.745-1.017-.51-1.783-.751-2.858-.9-.998-.139-1.309-.144-2.17-.035zm-3.296 19.248c1.345.686 1.567 2.462.438 3.503-.397.366-.48.376-.353.041.166-.434.105-.773-.192-1.07-.318-.318-.719-.37-1.106-.141-.428.253-.551.957-.237 1.357.193.245.102.272-.274.083-.877-.442-1.318-1.559-1.016-2.57.115-.383.732-1.098 1.079-1.249.385-.168 1.291-.143 1.661.046zm10.904.076c.4.253.73.636.884 1.024.16.404.121 1.342-.07 1.718-.161.314-.754.924-.9.924-.039 0-.021-.145.04-.323.167-.486-.003-.898-.466-1.127-.393-.194-.655-.145-1.01.19-.224.212-.279.324-.278.578 0 .174.072.435.161.58.271.445-.229.259-.746-.278-.845-.877-.834-2.193.026-3.009.394-.374.76-.506 1.416-.509.495-.003.623.028.943.232zm22.346 1.015c-.688.225-1.307.837-1.594 1.575-.12.308-.135.834-.136 4.633-.001 7.104-.226 9.176-1.216 11.194-.463.943-.869 1.444-1.522 1.878-.978.649-2.141.926-3.891.926-2.005 0-3.148-.361-4.129-1.303-.589-.567-.935-1.162-1.177-2.03-.158-.567-.168-.781-.148-3.128.012-1.386.01-3.526-.006-4.755l-.028-2.235-.215-.406c-.264-.496-.764-1.012-1.166-1.202-1.12-.531-2.48-.171-3.174.839-.282.411-.317.523-.395 1.26-.135 1.291-.038 9.074.125 9.967.497 2.726 1.902 4.931 4.026 6.317 1.758 1.147 3.696 1.659 6.257 1.655 2.217-.003 3.896-.343 5.482-1.109 3.319-1.603 5.209-4.696 5.842-9.563.231-1.769.3-3.884.275-8.327-.025-4.299-.029-4.397-.201-4.769-.252-.546-.772-1.074-1.268-1.288-.519-.223-1.279-.28-1.741-.129zm-41.788 2.842c-.775.217-1.404.818-1.6 1.532-.072.261-.09 2.584-.072 9.208.022 8.294.032 8.876.167 9.122.449.823 1.165 1.268 2.049 1.274.939.006 1.711-.481 2.102-1.326.172-.373.172-.374.172-9.232 0-7.118-.021-8.919-.107-9.161-.147-.418-.753-1.068-1.182-1.27-.473-.222-1.059-.279-1.529-.147z" stroke="#000" fill="none"/></svg>